# Blender 4.2.0
# www.blender.org
mtllib Suzany.mtl
o Suzanne
v 0.218750 0.582031 0.382812
v -0.218750 0.582031 0.382812
v 0.250000 0.546875 0.343750
v -0.250000 0.546875 0.343750
v 0.273438 0.527344 0.289062
v -0.273438 0.527344 0.289062
v 0.175781 0.499449 0.308594
v -0.175781 0.499449 0.308594
v 0.175781 0.526793 0.359375
v -0.175781 0.526793 0.359375
v 0.175781 0.566406 0.390625
v -0.175781 0.566406 0.390625
v 0.136719 0.582031 0.398438
v -0.136719 0.582031 0.398438
v 0.101562 0.546875 0.371094
v -0.101562 0.546875 0.371094
v 0.078125 0.527344 0.324219
v -0.078125 0.527344 0.324219
v 0.039062 0.621094 0.328125
v -0.039062 0.621094 0.328125
v 0.070312 0.621094 0.371094
v -0.070312 0.621094 0.371094
v 0.121094 0.621094 0.398438
v -0.121094 0.621094 0.398438
v 0.136719 0.664062 0.398438
v -0.136719 0.664062 0.398438
v 0.101562 0.695312 0.371094
v -0.101562 0.695312 0.371094
v 0.078125 0.718750 0.324219
v -0.078125 0.718750 0.324219
v 0.175781 0.757812 0.308594
v -0.175781 0.757812 0.308594
v 0.175781 0.726562 0.359375
v -0.175781 0.726562 0.359375
v 0.175781 0.679688 0.390625
v -0.175781 0.679688 0.390625
v 0.218750 0.664062 0.382812
v -0.218750 0.664062 0.382812
v 0.250000 0.695312 0.343750
v -0.250000 0.695312 0.343750
v 0.273438 0.718750 0.289062
v -0.273438 0.718750 0.289062
v 0.312500 0.621094 0.281250
v -0.312500 0.621094 0.281250
v 0.281250 0.621094 0.335938
v -0.281250 0.621094 0.335938
v 0.234375 0.621094 0.378906
v -0.234375 0.621094 0.378906
v -0.136719 0.664062 0.398438
v 0.136719 0.664062 0.398438
v -0.121094 0.621094 0.398438
v 0.121094 0.621094 0.398438
v 0.175781 0.687500 0.402344
v -0.175781 0.687500 0.402344
v 0.132812 0.667969 0.410156
v -0.132812 0.667969 0.410156
v -0.136719 0.582031 0.398438
v 0.136719 0.582031 0.398438
v -0.175781 0.566406 0.390625
v 0.175781 0.566406 0.390625
v -0.218750 0.582031 0.382812
v 0.218750 0.582031 0.382812
v 0.175781 0.558594 0.402344
v -0.175781 0.558594 0.402344
v 0.222656 0.578125 0.390625
v -0.222656 0.578125 0.390625
v 0.000000 0.714844 0.371094
v 0.000000 0.675781 0.410156
v 0.000000 0.160156 0.367188
v 0.000000 0.113281 0.359375
v 0.101562 0.406250 0.281250
v -0.101562 0.406250 0.281250
v 0.156250 0.281250 0.285156
v -0.156250 0.281250 0.285156
v 0.175781 0.152344 0.285156
v -0.175781 0.152344 0.285156
v 0.183594 0.054688 0.265625
v -0.183594 0.054688 0.265625
v 0.164062 0.027344 0.261719
v -0.164062 0.027344 0.261719
v 0.089844 0.015625 0.277344
v -0.089844 0.015625 0.277344
v 0.000000 0.007812 0.289062
v 0.218750 0.429688 0.265625
v -0.218750 0.429688 0.265625
v 0.316406 0.480469 0.269531
v -0.316406 0.480469 0.269531
v 0.414062 0.574219 0.222656
v -0.414062 0.574219 0.222656
v 0.429688 0.714844 0.296875
v -0.429688 0.714844 0.296875
v 0.355469 0.742188 0.312500
v -0.355469 0.742188 0.312500
v 0.246094 0.800781 0.343750
v -0.246094 0.800781 0.343750
v 0.160156 0.878906 0.367188
v -0.160156 0.878906 0.367188
v 0.078125 0.859375 0.378906
v -0.078125 0.859375 0.378906
v 0.031250 0.746094 0.375000
v -0.031250 0.746094 0.375000
v 0.082031 0.707031 0.386719
v -0.082031 0.707031 0.386719
v 0.062500 0.652344 0.382812
v -0.062500 0.652344 0.382812
v 0.101562 0.546875 0.371094
v -0.101562 0.546875 0.371094
v 0.187500 0.507812 0.351562
v -0.187500 0.507812 0.351562
v 0.246094 0.531250 0.335938
v -0.246094 0.531250 0.335938
v 0.312500 0.593750 0.324219
v -0.312500 0.593750 0.324219
v 0.320312 0.648438 0.324219
v -0.320312 0.648438 0.324219
v 0.300781 0.687500 0.332031
v -0.300781 0.687500 0.332031
v 0.214844 0.718750 0.359375
v -0.214844 0.718750 0.359375
v 0.125000 0.734375 0.378906
v -0.125000 0.734375 0.378906
v 0.000000 0.117188 0.367188
v 0.054688 0.140625 0.367188
v -0.054688 0.140625 0.367188
v 0.058594 0.082031 0.355469
v -0.058594 0.082031 0.355469
v 0.031250 0.058594 0.347656
v -0.031250 0.058594 0.347656
v 0.000000 0.054688 0.343750
v 0.000000 0.429688 0.371094
v 0.050781 0.425781 0.371094
v -0.050781 0.425781 0.371094
v 0.062500 0.386719 0.375000
v -0.062500 0.386719 0.375000
v 0.042969 0.355469 0.371094
v -0.042969 0.355469 0.371094
v 0.199219 0.476562 0.335938
v -0.199219 0.476562 0.335938
v 0.308594 0.527344 0.312500
v -0.308594 0.527344 0.312500
v 0.363281 0.601562 0.300781
v -0.363281 0.601562 0.300781
v 0.371094 0.687500 0.328125
v -0.371094 0.687500 0.328125
v 0.343750 0.707031 0.363281
v -0.343750 0.707031 0.363281
v 0.218750 0.773438 0.398438
v -0.218750 0.773438 0.398438
v 0.156250 0.820312 0.417969
v -0.156250 0.820312 0.417969
v 0.101562 0.808594 0.425781
v -0.101562 0.808594 0.425781
v 0.050781 0.714844 0.421875
v -0.050781 0.714844 0.421875
v 0.062500 0.449219 0.406250
v -0.062500 0.449219 0.406250
v 0.105469 0.277344 0.355469
v -0.105469 0.277344 0.355469
v 0.125000 0.148438 0.343750
v -0.125000 0.148438 0.343750
v 0.132812 0.089844 0.332031
v -0.132812 0.089844 0.332031
v 0.117188 0.042969 0.316406
v -0.117188 0.042969 0.316406
v 0.082031 0.035156 0.316406
v -0.082031 0.035156 0.316406
v 0.000000 0.027344 0.320312
v 0.000000 0.523438 0.363281
v 0.000000 0.605469 0.382812
v 0.164062 0.738281 0.371094
v -0.164062 0.738281 0.371094
v 0.082031 0.570312 0.375000
v -0.082031 0.570312 0.375000
v 0.066406 0.605469 0.378906
v -0.066406 0.605469 0.378906
v 0.058594 0.156250 0.367188
v -0.058594 0.156250 0.367188
v 0.039062 0.277344 0.375000
v -0.039062 0.277344 0.375000
v 0.000000 0.277344 0.375000
v 0.000000 0.335938 0.371094
v 0.128906 0.343750 0.277344
v -0.128906 0.343750 0.277344
v 0.082031 0.378906 0.355469
v -0.082031 0.378906 0.355469
v 0.089844 0.343750 0.355469
v -0.089844 0.343750 0.355469
v 0.117188 0.375000 0.277344
v -0.117188 0.375000 0.277344
v 0.000000 0.062500 0.343750
v 0.023438 0.066406 0.343750
v -0.023438 0.066406 0.343750
v 0.046875 0.089844 0.355469
v -0.046875 0.089844 0.355469
v 0.046875 0.128906 0.363281
v -0.046875 0.128906 0.363281
v 0.000000 0.109375 0.328125
v 0.046875 0.125000 0.332031
v -0.046875 0.125000 0.332031
v 0.046875 0.093750 0.320312
v -0.046875 0.093750 0.320312
v 0.023438 0.074219 0.316406
v -0.023438 0.074219 0.316406
v 0.000000 0.070312 0.316406
v 0.085938 0.609375 0.390625
v -0.085938 0.609375 0.390625
v 0.093750 0.578125 0.386719
v -0.093750 0.578125 0.386719
v 0.167969 0.714844 0.378906
v -0.167969 0.714844 0.378906
v 0.136719 0.710938 0.386719
v -0.136719 0.710938 0.386719
v 0.210938 0.699219 0.386719
v -0.210938 0.699219 0.386719
v 0.281250 0.675781 0.347656
v -0.281250 0.675781 0.347656
v 0.292969 0.644531 0.343750
v -0.292969 0.644531 0.343750
v 0.289062 0.597656 0.339844
v -0.289062 0.597656 0.339844
v 0.238281 0.550781 0.359375
v -0.238281 0.550781 0.359375
v 0.187500 0.531250 0.371094
v -0.187500 0.531250 0.371094
v 0.113281 0.554688 0.390625
v -0.113281 0.554688 0.390625
v 0.089844 0.648438 0.390625
v -0.089844 0.648438 0.390625
v 0.105469 0.687500 0.390625
v -0.105469 0.687500 0.390625
v 0.117188 0.679688 0.378906
v -0.117188 0.679688 0.378906
v 0.097656 0.648438 0.378906
v -0.097656 0.648438 0.378906
v 0.121094 0.562500 0.378906
v -0.121094 0.562500 0.378906
v 0.187500 0.542969 0.363281
v -0.187500 0.542969 0.363281
v 0.230469 0.558594 0.351562
v -0.230469 0.558594 0.351562
v 0.273438 0.605469 0.335938
v -0.273438 0.605469 0.335938
v 0.277344 0.640625 0.335938
v -0.277344 0.640625 0.335938
v 0.265625 0.667969 0.339844
v -0.265625 0.667969 0.339844
v 0.207031 0.695312 0.375000
v -0.207031 0.695312 0.375000
v 0.140625 0.699219 0.382812
v -0.140625 0.699219 0.382812
v 0.167969 0.703125 0.375000
v -0.167969 0.703125 0.375000
v 0.101562 0.585938 0.375000
v -0.101562 0.585938 0.375000
v 0.097656 0.613281 0.375000
v -0.097656 0.613281 0.375000
v 0.296875 0.437500 -0.082031
v -0.296875 0.437500 -0.082031
v 0.410156 0.664062 -0.101562
v -0.410156 0.664062 -0.101562
v 0.445312 0.703125 -0.117188
v -0.445312 0.703125 -0.117188
v 0.386719 0.429688 -0.062500
v -0.386719 0.429688 -0.062500
v 0.519531 0.449219 -0.164062
v -0.519531 0.449219 -0.164062
v 0.640625 0.527344 -0.214844
v -0.640625 0.527344 -0.214844
v 0.675781 0.660156 -0.210938
v -0.675781 0.660156 -0.210938
v 0.617188 0.753906 -0.210938
v -0.617188 0.753906 -0.210938
v 0.511719 0.738281 -0.156250
v -0.511719 0.738281 -0.156250
v 0.507812 0.707031 -0.144531
v -0.507812 0.707031 -0.144531
v 0.593750 0.718750 -0.195312
v -0.593750 0.718750 -0.195312
v 0.632812 0.644531 -0.203125
v -0.632812 0.644531 -0.203125
v 0.605469 0.539062 -0.203125
v -0.605469 0.539062 -0.203125
v 0.515625 0.480469 -0.152344
v -0.515625 0.480469 -0.152344
v 0.414062 0.464844 -0.066406
v -0.414062 0.464844 -0.066406
v 0.460938 0.679688 -0.109375
v -0.460938 0.679688 -0.109375
v 0.472656 0.652344 -0.144531
v -0.472656 0.652344 -0.144531
v 0.441406 0.488281 -0.105469
v -0.441406 0.488281 -0.105469
v 0.519531 0.500000 -0.183594
v -0.519531 0.500000 -0.183594
v 0.593750 0.546875 -0.222656
v -0.593750 0.546875 -0.222656
v 0.617188 0.625000 -0.222656
v -0.617188 0.625000 -0.222656
v 0.585938 0.679688 -0.218750
v -0.585938 0.679688 -0.218750
v 0.511719 0.671875 -0.179688
v -0.511719 0.671875 -0.179688
v 0.421875 0.644531 -0.105469
v -0.421875 0.644531 -0.105469
v 0.417969 0.585938 -0.136719
v -0.417969 0.585938 -0.136719
v 0.378906 0.546875 -0.136719
v -0.378906 0.546875 -0.136719
v 0.410156 0.542969 -0.136719
v -0.410156 0.542969 -0.136719
v 0.421875 0.507812 -0.136719
v -0.421875 0.507812 -0.136719
v 0.406250 0.492188 -0.136719
v -0.406250 0.492188 -0.136719
v 0.359375 0.488281 -0.085938
v -0.359375 0.488281 -0.085938
v 0.359375 0.519531 -0.093750
v -0.359375 0.519531 -0.093750
v 0.398438 0.601562 -0.105469
v -0.398438 0.601562 -0.105469
v 0.445312 0.621094 -0.132812
v -0.445312 0.621094 -0.132812
v 0.445312 0.617188 -0.160156
v -0.445312 0.617188 -0.160156
v 0.406250 0.492188 -0.160156
v -0.406250 0.492188 -0.160156
v 0.425781 0.507812 -0.160156
v -0.425781 0.507812 -0.160156
v 0.414062 0.539062 -0.160156
v -0.414062 0.539062 -0.160156
v 0.382812 0.546875 -0.160156
v -0.382812 0.546875 -0.160156
v 0.421875 0.585938 -0.160156
v -0.421875 0.585938 -0.160156
v 0.519531 0.664062 -0.207031
v -0.519531 0.664062 -0.207031
v 0.593750 0.671875 -0.242188
v -0.593750 0.671875 -0.242188
v 0.628906 0.621094 -0.246094
v -0.628906 0.621094 -0.246094
v 0.605469 0.542969 -0.242188
v -0.605469 0.542969 -0.242188
v 0.523438 0.500000 -0.210938
v -0.523438 0.500000 -0.210938
v 0.441406 0.492188 -0.132812
v -0.441406 0.492188 -0.132812
v 0.476562 0.644531 -0.171875
v -0.476562 0.644531 -0.171875
v 0.445312 0.554688 -0.164062
v -0.445312 0.554688 -0.164062
v 0.468750 0.531250 -0.167969
v -0.468750 0.531250 -0.167969
v 0.500000 0.562500 -0.183594
v -0.500000 0.562500 -0.183594
v 0.480469 0.585938 -0.175781
v -0.480469 0.585938 -0.175781
v 0.507812 0.617188 -0.187500
v -0.507812 0.617188 -0.187500
v 0.527344 0.593750 -0.191406
v -0.527344 0.593750 -0.191406
v 0.554688 0.605469 -0.195312
v -0.554688 0.605469 -0.195312
v 0.542969 0.636719 -0.195312
v -0.542969 0.636719 -0.195312
v 0.511719 0.718750 -0.242188
v -0.511719 0.718750 -0.242188
v 0.625000 0.734375 -0.273438
v -0.625000 0.734375 -0.273438
v 0.683594 0.648438 -0.250000
v -0.683594 0.648438 -0.250000
v 0.656250 0.527344 -0.265625
v -0.656250 0.527344 -0.265625
v 0.519531 0.457031 -0.246094
v -0.519531 0.457031 -0.246094
v 0.394531 0.437500 -0.164062
v -0.394531 0.437500 -0.164062
v 0.429688 0.691406 -0.191406
v -0.429688 0.691406 -0.191406
v -0.359375 0.488281 -0.085938
v 0.359375 0.488281 -0.085938
v -0.363281 0.500000 -0.035156
v 0.363281 0.500000 -0.035156
v -0.421875 0.644531 -0.105469
v 0.421875 0.644531 -0.105469
v -0.386719 0.429688 -0.062500
v 0.386719 0.429688 -0.062500
v -0.445312 0.703125 -0.117188
v 0.445312 0.703125 -0.117188
v -0.214844 0.402344 -0.105469
v 0.214844 0.402344 -0.105469
v -0.203125 0.414062 0.074219
v 0.203125 0.414062 0.074219
v -0.410156 0.664062 -0.101562
v 0.410156 0.664062 -0.101562
v -0.242188 0.511719 -0.273438
v 0.242188 0.511719 -0.273438
v -0.308594 0.664062 -0.292969
v 0.308594 0.664062 -0.292969
v -0.398438 0.769531 -0.179688
v 0.398438 0.769531 -0.179688
v -0.320312 0.839844 -0.222656
v 0.320312 0.839844 -0.222656
v -0.320312 0.875000 -0.097656
v 0.320312 0.875000 -0.097656
v -0.398438 0.808594 -0.058594
v 0.398438 0.808594 -0.058594
v -0.398438 0.781250 0.062500
v 0.398438 0.781250 0.062500
v -0.320312 0.851562 0.027344
v 0.320312 0.851562 0.027344
v -0.316406 0.726562 0.140625
v 0.316406 0.726562 0.140625
v -0.363281 0.703125 0.167969
v 0.363281 0.703125 0.167969
v -0.230469 0.761719 0.214844
v 0.230469 0.761719 0.214844
v -0.226562 0.925781 0.117188
v 0.226562 0.925781 0.117188
v -0.226562 0.964844 -0.035156
v 0.226562 0.964844 -0.035156
v -0.226562 0.933594 -0.191406
v 0.226562 0.933594 -0.191406
v -0.171875 0.425781 -0.269531
v 0.171875 0.425781 -0.269531
v -0.148438 0.343750 -0.132812
v 0.148438 0.343750 -0.132812
v -0.105469 0.304688 0.082031
v 0.105469 0.304688 0.082031
v -0.101562 0.414062 0.250000
v 0.101562 0.414062 0.250000
v 0.000000 0.714844 0.371094
v 0.000000 0.703125 0.300781
v 0.000000 0.785156 0.285156
v 0.000000 0.949219 -0.273438
v 0.000000 0.781250 -0.425781
v 0.000000 0.535156 -0.414062
v 0.000000 0.308594 -0.175781
v 0.101562 0.406250 0.281250
v -0.101562 0.406250 0.281250
v 0.156250 0.281250 0.285156
v -0.156250 0.281250 0.285156
v 0.175781 0.152344 0.285156
v -0.175781 0.152344 0.285156
v 0.183594 0.054688 0.265625
v -0.183594 0.054688 0.265625
v 0.164062 0.027344 0.261719
v -0.164062 0.027344 0.261719
v 0.089844 0.015625 0.277344
v -0.089844 0.015625 0.277344
v 0.000000 0.007812 0.289062
v 0.218750 0.429688 0.265625
v -0.218750 0.429688 0.265625
v 0.316406 0.480469 0.269531
v -0.316406 0.480469 0.269531
v 0.414062 0.574219 0.222656
v -0.414062 0.574219 0.222656
v 0.429688 0.714844 0.296875
v -0.429688 0.714844 0.296875
v 0.355469 0.742188 0.312500
v -0.355469 0.742188 0.312500
v 0.246094 0.800781 0.343750
v -0.246094 0.800781 0.343750
v 0.160156 0.878906 0.367188
v -0.160156 0.878906 0.367188
v -0.078125 0.859375 0.378906
v 0.031250 0.746094 0.375000
v -0.031250 0.746094 0.375000
v 0.128906 0.343750 0.277344
v -0.128906 0.343750 0.277344
v 0.117188 0.375000 0.277344
v -0.117188 0.375000 0.277344
v 0.054688 0.730469 0.304688
v -0.054688 0.730469 0.304688
v 0.097656 0.832031 0.308594
v 0.242188 0.777344 0.277344
v -0.242188 0.777344 0.277344
v 0.339844 0.726562 0.246094
v -0.339844 0.726562 0.246094
v 0.398438 0.703125 0.230469
v -0.398438 0.703125 0.230469
v 0.386719 0.582031 0.187500
v -0.386719 0.582031 0.187500
v 0.300781 0.500000 0.207031
v -0.300781 0.500000 0.207031
v 0.218750 0.453125 0.234375
v -0.218750 0.453125 0.234375
v 0.000000 0.949219 0.144531
v 0.000000 0.992188 -0.039062
v 0.000000 0.402344 -0.335938
v 0.000000 0.269531 0.093750
v 0.000000 0.011719 0.230469
v 0.000000 0.097656 0.171875
v 0.000000 0.214844 0.160156
v 0.000000 0.257812 0.140625
v 0.425781 0.617188 0.027344
v -0.425781 0.617188 0.027344
v 0.429688 0.660156 -0.023438
v -0.429688 0.660156 -0.023438
v 0.386719 0.632812 -0.218750
v -0.386719 0.632812 -0.218750
v 0.230469 0.718750 -0.351562
v -0.230469 0.718750 -0.351562
v 0.367188 0.476562 0.035156
v -0.367188 0.476562 0.035156
v 0.296875 0.437500 -0.082031
v -0.296875 0.437500 -0.082031
v 0.320312 0.496094 -0.214844
v -0.320312 0.496094 -0.214844
v 0.167969 0.527344 -0.332031
v -0.167969 0.527344 -0.332031
v 0.117188 0.324219 0.203125
v -0.117188 0.324219 0.203125
v 0.089844 0.292969 0.128906
v -0.089844 0.292969 0.128906
v 0.144531 0.144531 0.191406
v -0.144531 0.144531 0.191406
v 0.125000 0.250000 0.195312
v -0.125000 0.250000 0.195312
v 0.164062 0.042969 0.199219
v -0.164062 0.042969 0.199219
v 0.070312 0.121094 0.183594
v -0.070312 0.121094 0.183594
v -0.167969 0.843750 0.296875
v 0.167969 0.843750 0.296875
v -0.097656 0.832031 0.308594
v 0.062500 0.230469 0.179688
v -0.062500 0.230469 0.179688
v 0.078125 0.859375 0.378906
v 0.082031 0.027344 0.218750
v -0.082031 0.027344 0.218750
v 0.109375 0.359375 0.214844
v -0.109375 0.359375 0.214844
v 0.105469 0.386719 0.234375
v -0.105469 0.386719 0.234375
v 0.359375 0.519531 -0.093750
v -0.359375 0.519531 -0.093750
v 0.398438 0.601562 -0.105469
v -0.398438 0.601562 -0.105469
v 0.394531 0.437500 -0.164062
v -0.394531 0.437500 -0.164062
v 0.429688 0.691406 -0.191406
v -0.429688 0.691406 -0.191406
v 0.175781 0.679688 0.390625
v -0.175781 0.679688 0.390625
v 0.218750 0.664062 0.382812
v -0.218750 0.664062 0.382812
v 0.234375 0.621094 0.378906
v -0.234375 0.621094 0.378906
v 0.238281 0.621094 0.386719
v -0.238281 0.621094 0.386719
v 0.222656 0.667969 0.390625
v -0.222656 0.667969 0.390625
v 0.175781 0.687500 0.402344
v -0.175781 0.687500 0.402344
v 0.132812 0.667969 0.410156
v -0.132812 0.667969 0.410156
v 0.113281 0.621094 0.410156
v -0.113281 0.621094 0.410156
v 0.132812 0.578125 0.410156
v -0.132812 0.578125 0.410156
v 0.175781 0.621094 0.414062
v -0.175781 0.621094 0.414062
v 0.175781 0.558594 0.402344
v -0.175781 0.558594 0.402344
v 0.222656 0.578125 0.390625
v -0.222656 0.578125 0.390625
v 0.000000 0.339844 0.390625
v 0.000000 0.406250 0.398438
v 0.000000 0.402344 0.375000
v 0.000000 0.429688 0.371094
v 0.050781 0.425781 0.371094
v -0.050781 0.425781 0.371094
v 0.062500 0.386719 0.375000
v -0.062500 0.386719 0.375000
v 0.042969 0.355469 0.371094
v -0.042969 0.355469 0.371094
v 0.000000 0.335938 0.371094
v 0.046875 0.363281 0.390625
v -0.046875 0.363281 0.390625
v 0.066406 0.386719 0.398438
v -0.066406 0.386719 0.398438
v 0.054688 0.433594 0.390625
v -0.054688 0.433594 0.390625
v 0.019531 0.437500 0.390625
v -0.019531 0.437500 0.390625
v 0.000000 0.398438 0.414062
v 0.023438 0.425781 0.406250
v -0.023438 0.425781 0.406250
v 0.046875 0.421875 0.406250
v -0.046875 0.421875 0.406250
v 0.054688 0.386719 0.414062
v -0.054688 0.386719 0.414062
v 0.039062 0.375000 0.402344
v -0.039062 0.375000 0.402344
v 0.000000 0.355469 0.402344
vn 0.6650 -0.2008 0.7194
vn -0.6650 -0.2008 0.7194
vn 0.8294 -0.3036 0.4689
vn -0.8294 -0.3036 0.4689
vn 0.3240 -0.8357 0.4434
vn -0.3240 -0.8357 0.4434
vn 0.3250 -0.5722 0.7530
vn -0.3250 -0.5722 0.7530
vn -0.0518 -0.6008 0.7977
vn 0.0518 -0.6008 0.7977
vn -0.1703 -0.8718 0.4593
vn 0.1703 -0.8718 0.4593
vn -0.7707 -0.3352 0.5420
vn 0.7707 -0.3352 0.5420
vn -0.4689 -0.1940 0.8617
vn 0.4689 -0.1940 0.8617
vn -0.4767 0.1907 0.8581
vn 0.4767 0.1907 0.8581
vn -0.7672 0.3264 0.5521
vn 0.7672 0.3264 0.5521
vn -0.2519 0.8173 0.5182
vn 0.2519 0.8173 0.5182
vn -0.0949 0.5696 0.8164
vn 0.0949 0.5696 0.8164
vn 0.3667 0.5370 0.7597
vn -0.3667 0.5370 0.7597
vn 0.4141 0.7672 0.4898
vn -0.4141 0.7672 0.4898
vn 0.8277 0.2952 0.4771
vn -0.8277 0.2952 0.4771
vn 0.6713 0.1971 0.7145
vn -0.6713 0.1971 0.7145
vn -0.4002 0.0572 0.9147
vn 0.4002 0.0572 0.9147
vn -0.3036 0.1656 0.9383
vn 0.3036 0.1656 0.9383
vn -0.4223 0.7806 -0.4607
vn 0.4223 0.7806 -0.4607
vn -0.0996 0.1729 0.9799
vn 0.0996 0.1729 0.9799
vn 0.0624 0.0260 0.9977
vn -0.0624 0.0260 0.9977
vn 0.0624 -0.0283 0.9977
vn -0.0624 -0.0283 0.9977
vn 0.2052 -0.8206 -0.5334
vn -0.2052 -0.8206 -0.5334
vn -0.0945 -0.1835 0.9785
vn 0.0945 -0.1835 0.9785
vn -0.3069 -0.1754 0.9354
vn 0.3069 -0.1754 0.9354
vn -0.4000 -0.0623 0.9144
vn 0.4000 -0.0623 0.9144
vn -0.7995 -0.3510 -0.4875
vn 0.7995 -0.3510 -0.4875
vn 0.4223 -0.7806 -0.4607
vn -0.4223 -0.7806 -0.4607
vn 0.8137 -0.3487 -0.4650
vn -0.8137 -0.3487 -0.4650
vn 0.8241 0.3225 -0.4658
vn -0.8241 0.3225 -0.4658
vn -0.2052 0.8206 -0.5334
vn 0.2052 0.8206 -0.5334
vn -0.8111 0.3244 -0.4867
vn 0.8111 0.3244 -0.4867
vn 0.1231 -0.8616 0.4924
vn -0.1231 -0.8616 0.4924
vn 0.2190 -0.8647 0.4520
vn -0.2190 -0.8647 0.4520
vn 0.5902 -0.4550 0.6668
vn -0.5902 -0.4550 0.6668
vn 0.7689 -0.0506 0.6374
vn -0.7689 -0.0506 0.6374
vn 0.7796 0.0900 0.6197
vn -0.7796 0.0900 0.6197
vn 0.3241 -0.8188 0.4739
vn -0.3241 -0.8188 0.4739
vn 0.3857 -0.6629 0.6417
vn -0.3857 -0.6629 0.6417
vn 0.6895 -0.4193 0.5906
vn -0.6895 -0.4193 0.5906
vn 0.6588 -0.3634 0.6588
vn -0.6588 -0.3634 0.6588
vn 0.5465 0.3707 0.7509
vn -0.5465 0.3707 0.7509
vn 0.5064 0.6464 0.5706
vn -0.5064 0.6464 0.5706
vn 0.6092 0.5167 0.6015
vn -0.6092 0.5167 0.6015
vn -0.0441 0.6610 0.7491
vn 0.0441 0.6610 0.7491
vn -0.7246 0.3187 0.6110
vn 0.7246 0.3187 0.6110
vn -0.5880 0.5554 0.5880
vn 0.5880 0.5554 0.5880
vn 0.5361 -0.3909 0.7482
vn -0.5361 -0.3909 0.7482
vn 0.2207 -0.4690 0.8552
vn -0.2207 -0.4690 0.8552
vn -0.0794 -0.5321 0.8429
vn 0.0794 -0.5321 0.8429
vn -0.0825 -0.6575 0.7490
vn 0.0825 -0.6575 0.7490
vn 0.0457 -0.5667 0.8226
vn -0.0457 -0.5667 0.8226
vn 0.2784 -0.2130 0.9365
vn -0.2784 -0.2130 0.9365
vn 0.3813 -0.1824 0.9063
vn -0.3813 -0.1824 0.9063
vn 0.3357 -0.2878 0.8969
vn -0.3357 -0.2878 0.8969
vn 0.3762 0.0603 0.9246
vn -0.3762 0.0603 0.9246
vn -0.1352 0.2680 0.9539
vn 0.1352 0.2680 0.9539
vn 0.3961 -0.4321 0.8102
vn -0.3961 -0.4321 0.8102
vn 0.1856 -0.2474 0.9510
vn -0.1856 -0.2474 0.9510
vn 0.0099 -0.1948 0.9808
vn -0.0099 -0.1948 0.9808
vn 0.0721 -0.6966 0.7138
vn -0.0721 -0.6966 0.7138
vn 0.1863 -0.5723 0.7986
vn -0.1863 -0.5723 0.7986
vn 0.3157 -0.2708 0.9094
vn -0.3157 -0.2708 0.9094
vn 0.3063 -0.0265 0.9516
vn -0.3063 -0.0265 0.9516
vn 0.3266 -0.1306 0.9361
vn -0.3266 -0.1306 0.9361
vn -0.0137 0.0574 0.9983
vn 0.0137 0.0574 0.9983
vn -0.0026 -0.0656 0.9978
vn 0.0026 -0.0656 0.9978
vn -0.0000 -0.0000 1.0000
vn -0.4452 -0.1610 0.8809
vn 0.4452 -0.1610 0.8809
vn -0.2182 -0.4364 0.8729
vn 0.2182 -0.4364 0.8729
vn 0.4341 -0.1290 0.8916
vn -0.4341 -0.1290 0.8916
vn 0.3008 0.0501 0.9524
vn -0.3008 0.0501 0.9524
vn 0.8123 0.3010 0.4996
vn -0.8123 0.3010 0.4996
vn 0.8753 0.2574 0.4093
vn -0.8753 0.2574 0.4093
vn 0.9385 0.1601 0.3060
vn -0.9385 0.1601 0.3060
vn 0.2237 -0.6539 0.7227
vn -0.2237 -0.6539 0.7227
vn -0.1536 -0.1997 0.9677
vn 0.1536 -0.1997 0.9677
vn -0.2733 -0.1025 0.9565
vn 0.2733 -0.1025 0.9565
vn -0.0976 0.1952 0.9759
vn 0.0976 0.1952 0.9759
vn -0.1582 0.9494 0.2713
vn 0.1582 0.9494 0.2713
vn -0.6934 0.7082 0.1328
vn 0.6934 0.7082 0.1328
vn -1.0000 -0.0000 -0.0000
vn 1.0000 -0.0000 -0.0000
vn 0.3051 -0.9450 0.1181
vn -0.3051 -0.9450 0.1181
vn 0.0298 -0.2981 0.9541
vn -0.0298 -0.2981 0.9541
vn 0.1353 -0.3479 0.9277
vn -0.1353 -0.3479 0.9277
vn -0.5085 -0.2755 0.8158
vn 0.5085 -0.2755 0.8158
vn -0.3843 -0.0419 0.9223
vn 0.3843 -0.0419 0.9223
vn -0.2083 0.0374 0.9774
vn 0.2083 0.0374 0.9774
vn -0.5721 -0.4767 0.6674
vn 0.5721 -0.4767 0.6674
vn -0.1369 -0.7531 0.6435
vn 0.1369 -0.7531 0.6435
vn 0.4088 -0.6071 0.6814
vn -0.4088 -0.6071 0.6814
vn 0.5740 -0.4130 0.7070
vn -0.5740 -0.4130 0.7070
vn 0.5665 -0.0968 0.8183
vn -0.5665 -0.0968 0.8183
vn 0.5703 0.1180 0.8129
vn -0.5703 0.1180 0.8129
vn 0.4823 0.5621 0.6719
vn -0.4823 0.5621 0.6719
vn 0.2604 0.6114 0.7473
vn -0.2604 0.6114 0.7473
vn 0.1640 0.3607 0.9182
vn -0.1640 0.3607 0.9182
vn -0.0178 0.2495 0.9682
vn 0.0178 0.2495 0.9682
vn 0.3273 -0.4166 0.8481
vn -0.3273 -0.4166 0.8481
vn 0.2811 -0.2610 0.9235
vn -0.2811 -0.2610 0.9235
vn -0.2542 -0.6514 0.7149
vn 0.2542 -0.6514 0.7149
vn -0.0260 -0.8455 0.5333
vn 0.0260 -0.8455 0.5333
vn -0.3518 -0.2606 0.8991
vn 0.3518 -0.2606 0.8991
vn -0.3523 -0.0110 0.9358
vn 0.3523 -0.0110 0.9358
vn -0.1317 0.4608 0.8777
vn 0.1317 0.4608 0.8777
vn -0.0342 0.6159 0.7870
vn 0.0342 0.6159 0.7870
vn 0.3603 0.5836 0.7277
vn -0.3603 0.5836 0.7277
vn 0.4988 0.5300 0.6858
vn -0.4988 0.5300 0.6858
vn 0.6667 -0.3333 0.6667
vn -0.6667 -0.3333 0.6667
vn 0.8165 -0.0731 0.5727
vn -0.8165 -0.0731 0.5727
vn 0.7840 0.1161 0.6098
vn -0.7840 0.1161 0.6098
vn 0.3506 0.3807 0.8557
vn -0.3506 0.3807 0.8557
vn 0.4566 0.1715 0.8730
vn -0.4566 0.1715 0.8730
vn 0.2583 0.1055 0.9603
vn -0.2583 0.1055 0.9603
vn 0.2455 -0.0802 0.9661
vn -0.2455 -0.0802 0.9661
vn 0.4643 -0.0599 0.8837
vn -0.4643 -0.0599 0.8837
vn 0.6225 -0.3045 0.7210
vn -0.6225 -0.3045 0.7210
vn 0.4500 0.6590 0.6027
vn -0.4500 0.6590 0.6027
vn -0.2667 0.8309 0.4884
vn 0.2667 0.8309 0.4884
vn -0.8284 0.2291 0.5111
vn 0.8284 0.2291 0.5111
vn -0.5251 -0.3566 0.7727
vn 0.5251 -0.3566 0.7727
vn 0.4546 -0.5665 0.6873
vn -0.4546 -0.5665 0.6873
vn 0.6996 -0.4497 0.5552
vn -0.6996 -0.4497 0.5552
vn -0.1919 0.2860 0.9388
vn 0.1919 0.2860 0.9388
vn 0.1034 0.1551 0.9825
vn -0.1034 0.1551 0.9825
vn 0.0841 0.9318 0.3530
vn -0.0841 0.9318 0.3530
vn 0.6446 -0.0883 0.7594
vn -0.6446 -0.0883 0.7594
vn 0.4309 0.4740 0.7678
vn -0.4309 0.4740 0.7678
vn 0.8032 -0.4847 0.3462
vn -0.8032 -0.4847 0.3462
vn 0.5811 -0.4128 0.7014
vn -0.5811 -0.4128 0.7014
vn 0.5910 -0.4305 0.6822
vn -0.5910 -0.4305 0.6822
vn 0.7313 -0.6543 0.1925
vn -0.7313 -0.6543 0.1925
vn 0.7867 -0.6079 0.1073
vn -0.7867 -0.6079 0.1073
vn 0.7022 -0.7022 0.1170
vn -0.7022 -0.7022 0.1170
vn 0.1840 0.9816 -0.0511
vn -0.1840 0.9816 -0.0511
vn 0.9352 0.3301 0.1284
vn -0.9352 0.3301 0.1284
vn 0.6633 -0.7463 0.0553
vn -0.6633 -0.7463 0.0553
vn -0.0085 0.9970 0.0767
vn 0.0085 0.9970 0.0767
vn 0.6237 -0.7061 0.3354
vn -0.6237 -0.7061 0.3354
vn 0.2733 -0.8925 0.3587
vn -0.2733 -0.8925 0.3587
vn -0.8328 -0.5080 -0.2200
vn 0.8328 -0.5080 -0.2200
vn -0.8339 0.2377 -0.4981
vn 0.8339 0.2377 -0.4981
vn -0.5655 0.7847 -0.2539
vn 0.5655 0.7847 -0.2539
vn -0.0560 0.9962 0.0672
vn 0.0560 0.9962 0.0672
vn 0.1445 0.0222 0.9893
vn -0.1445 0.0222 0.9893
vn 0.3275 0.0645 0.9427
vn -0.3275 0.0645 0.9427
vn 0.3127 0.0232 0.9496
vn -0.3127 0.0232 0.9496
vn 0.1710 0.0274 0.9849
vn -0.1710 0.0274 0.9849
vn 0.3487 0.2849 0.8929
vn -0.3487 0.2849 0.8929
vn 0.4006 -0.0343 0.9156
vn -0.4006 -0.0343 0.9156
vn 0.2572 -0.0603 0.9645
vn -0.2572 -0.0603 0.9645
vn 0.0637 -0.0106 0.9979
vn -0.0637 -0.0106 0.9979
vn -0.3637 0.7039 0.6101
vn 0.3637 0.7039 0.6101
vn 0.6299 0.0355 0.7759
vn -0.6299 0.0355 0.7759
vn 0.4472 -0.2002 0.8717
vn -0.4472 -0.2002 0.8717
vn 0.5072 -0.2141 0.8348
vn -0.5072 -0.2141 0.8348
vn 0.5258 0.2619 0.8093
vn -0.5258 0.2619 0.8093
vn 0.2980 0.5802 0.7580
vn -0.2980 0.5802 0.7580
vn 0.0930 -0.9924 -0.0805
vn -0.0930 -0.9924 -0.0805
vn 0.5006 -0.8657 0.0080
vn -0.5006 -0.8657 0.0080
vn 0.9285 -0.2497 0.2748
vn -0.9285 -0.2497 0.2748
vn 0.8393 0.5424 -0.0378
vn -0.8393 0.5424 -0.0378
vn -0.2355 0.9367 -0.2589
vn 0.2355 0.9367 -0.2589
vn -0.4499 0.8838 -0.1285
vn 0.4499 0.8838 -0.1285
vn -0.5384 -0.0098 -0.8427
vn 0.5384 -0.0098 -0.8427
vn -0.1910 -0.0241 -0.9813
vn 0.1910 -0.0241 -0.9813
vn 0.4046 0.0266 -0.9141
vn -0.4046 0.0266 -0.9141
vn -0.8511 0.3695 -0.3730
vn 0.8511 0.3695 -0.3730
vn 0.5924 0.7465 -0.3030
vn -0.5924 0.7465 -0.3030
vn 0.3685 0.8758 -0.3118
vn -0.3685 0.8758 -0.3118
vn 0.2821 0.9151 -0.2880
vn -0.2821 0.9151 -0.2880
vn 0.8561 0.1340 -0.4991
vn -0.8561 0.1340 -0.4991
vn 0.5342 -0.7233 -0.4376
vn -0.5342 -0.7233 -0.4376
vn 0.3849 -0.8131 -0.4368
vn -0.3849 -0.8131 -0.4368
vn 0.2335 -0.5806 -0.7800
vn -0.2335 -0.5806 -0.7800
vn 0.2449 -0.0583 -0.9678
vn -0.2449 -0.0583 -0.9678
vn 0.1163 -0.4535 -0.8837
vn -0.1163 -0.4535 -0.8837
vn 0.1152 -0.9836 -0.1388
vn -0.1152 -0.9836 -0.1388
vn 0.1184 -0.9669 -0.2260
vn -0.1184 -0.9669 -0.2260
vn 0.9597 -0.0085 -0.2808
vn -0.9597 -0.0085 -0.2808
vn 0.9319 0.1629 -0.3242
vn -0.9319 0.1629 -0.3242
vn 0.1626 0.0207 -0.9865
vn -0.1626 0.0207 -0.9865
vn -0.0188 -0.2177 -0.9758
vn 0.0188 -0.2177 -0.9758
vn 0.7538 -0.2926 -0.5884
vn -0.7538 -0.2926 -0.5884
vn 0.9196 0.1379 -0.3678
vn -0.9196 0.1379 -0.3678
vn 0.9297 0.3127 -0.1944
vn -0.9297 0.3127 -0.1944
vn 0.9120 0.3376 -0.2329
vn -0.9120 0.3376 -0.2329
vn 0.9407 0.3338 -0.0607
vn -0.9407 0.3338 -0.0607
vn 0.1761 -0.8805 -0.4402
vn -0.1761 -0.8805 -0.4402
vn 0.3708 -0.4733 -0.7991
vn -0.3708 -0.4733 -0.7991
vn 0.3107 -0.8284 -0.4660
vn -0.3107 -0.8284 -0.4660
vn 0.2793 -0.9515 -0.1287
vn -0.2793 -0.9515 -0.1287
vn 0.3139 -0.9321 -0.1807
vn -0.3139 -0.9321 -0.1807
vn 0.9762 -0.2083 -0.0609
vn -0.9762 -0.2083 -0.0609
vn 0.8267 -0.5066 0.2447
vn -0.8267 -0.5066 0.2447
vn 0.3449 -0.1158 -0.9315
vn -0.3449 -0.1158 -0.9315
vn 0.1203 0.9644 0.2355
vn -0.1203 0.9644 0.2355
vn 0.1275 0.9744 -0.1851
vn -0.1275 0.9744 -0.1851
vn 0.3492 0.5947 -0.7241
vn -0.3492 0.5947 -0.7241
vn 0.4153 0.8981 -0.1449
vn -0.4153 0.8981 -0.1449
vn 0.1845 0.7036 0.6863
vn -0.1845 0.7036 0.6863
vn 0.6056 0.7794 0.1608
vn -0.6056 0.7794 0.1608
vn 0.7033 0.6806 -0.2053
vn -0.7033 0.6806 -0.2053
vn 0.6679 0.2007 -0.7166
vn -0.6679 0.2007 -0.7166
vn 0.4948 0.4342 -0.7528
vn -0.4948 0.4342 -0.7528
vn 0.6423 0.7459 -0.1761
vn -0.6423 0.7459 -0.1761
vn 0.7182 0.6788 0.1530
vn -0.7182 0.6788 0.1530
vn 0.7388 0.3972 0.5444
vn -0.7388 0.3972 0.5444
vn 0.3428 0.9261 -0.1579
vn -0.3428 0.9261 -0.1579
vn 0.2270 0.5740 0.7867
vn -0.2270 0.5740 0.7867
vn -0.1722 0.1046 -0.9795
vn 0.1722 0.1046 -0.9795
vn 0.0425 0.9150 0.4013
vn -0.0425 0.9150 0.4013
vn -0.1616 0.1847 0.9694
vn 0.1616 0.1847 0.9694
vn 0.9791 0.1973 0.0483
vn -0.9791 0.1973 0.0483
vn 0.9470 0.0918 0.3079
vn -0.9470 0.0918 0.3079
vn 0.9794 0.1905 -0.0661
vn -0.9794 0.1905 -0.0661
vn 0.9938 0.0312 -0.1070
vn -0.9938 0.0312 -0.1070
vn 0.7116 -0.7008 0.0501
vn -0.7116 -0.7008 0.0501
vn 0.3722 -0.9243 0.0847
vn -0.3722 -0.9243 0.0847
vn 0.4465 -0.8644 0.2310
vn -0.4465 -0.8644 0.2310
vn 0.6066 -0.7578 0.2405
vn -0.6066 -0.7578 0.2405
vn 0.7325 -0.6368 0.2407
vn -0.7325 -0.6368 0.2407
vn 0.2637 -0.4499 0.8533
vn -0.2637 -0.4499 0.8533
vn 0.5568 -0.3181 -0.7673
vn -0.5568 -0.3181 -0.7673
vn 0.5004 -0.2807 -0.8190
vn -0.5004 -0.2807 -0.8190
vn 0.3190 -0.8494 -0.4205
vn -0.3190 -0.8494 -0.4205
vn 0.7198 -0.6356 -0.2793
vn -0.7198 -0.6356 -0.2793
vn 0.4972 -0.4408 -0.7473
vn -0.4972 -0.4408 -0.7473
vn 0.7220 -0.6827 -0.1126
vn -0.7220 -0.6827 -0.1126
vn 0.9048 -0.3734 -0.2047
vn -0.9048 -0.3734 -0.2047
vn 0.9818 -0.1804 -0.0591
vn -0.9818 -0.1804 -0.0591
vn 0.9105 -0.3965 -0.1175
vn -0.9105 -0.3965 -0.1175
vn 0.9972 -0.0181 -0.0725
vn -0.9972 -0.0181 -0.0725
vn -0.7819 0.6231 0.0197
vn 0.7819 0.6231 0.0197
vn 0.2446 0.8675 -0.4331
vn -0.2446 0.8675 -0.4331
vn 0.5428 -0.2063 -0.8142
vn -0.5428 -0.2063 -0.8142
vn -0.2474 -0.9231 -0.2945
vn 0.2474 -0.9231 -0.2945
vn 0.5306 0.8111 -0.2461
vn -0.5306 0.8111 -0.2461
vn 0.8174 -0.5744 -0.0442
vn -0.8174 -0.5744 -0.0442
vn 0.9494 0.2297 -0.2144
vn -0.9494 0.2297 -0.2144
vn 0.0825 0.9073 -0.4124
vn -0.0825 0.9073 -0.4124
vn -0.8836 0.3555 0.3047
vn 0.8836 0.3555 0.3047
vn 0.4207 -0.8797 0.2218
vn -0.4207 -0.8797 0.2218
vn 0.2873 -0.5747 0.7663
vn -0.2873 -0.5747 0.7663
vn -0.6542 0.6019 0.4580
vn 0.6542 0.6019 0.4580
vn 0.1052 0.7892 0.6051
vn -0.1052 0.7892 0.6051
vn 0.7582 0.2916 0.5832
vn -0.7582 0.2916 0.5832
vn 0.3889 -0.7130 0.5834
vn -0.3889 -0.7130 0.5834
vn 0.0463 0.2314 0.9718
vn -0.0463 0.2314 0.9718
vn 0.0335 -0.4018 0.9151
vn -0.0335 -0.4018 0.9151
vt 0.843250 0.588863
vt 0.833697 0.611927
vt 0.794218 0.611927
vt 0.815334 0.560948
vt 0.866314 0.937441
vt 0.866314 0.897962
vt 0.889378 0.888409
vt 0.917293 0.916324
vt 0.746541 0.611927
vt 0.781622 0.527235
vt 0.866314 0.985118
vt 0.951006 0.950037
vt 0.815334 0.662907
vt 0.781622 0.696619
vt 0.781622 0.950037
vt 0.815334 0.916325
vt 0.843250 0.634991
vt 0.843250 0.888409
vt 0.866314 0.644544
vt 0.866314 0.684023
vt 0.794218 0.865345
vt 0.833697 0.865345
vt 0.866314 0.731700
vt 0.746541 0.865345
vt 0.917293 0.662907
vt 0.951006 0.696619
vt 0.781622 0.780653
vt 0.815334 0.814366
vt 0.889378 0.634991
vt 0.843250 0.842281
vt 0.898931 0.611927
vt 0.938410 0.611927
vt 0.866314 0.793249
vt 0.866314 0.832728
vt 0.986087 0.611927
vt 0.866314 0.745572
vt 0.917294 0.560947
vt 0.951006 0.527235
vt 0.951006 0.780653
vt 0.917294 0.814365
vt 0.889378 0.588863
vt 0.889378 0.842281
vt 0.866314 0.579310
vt 0.866314 0.539831
vt 0.938410 0.865345
vt 0.898931 0.865345
vt 0.866314 0.492154
vt 0.986087 0.865345
vt 0.892780 0.865345
vt 0.885028 0.884059
vt 0.866314 0.865345
vt 0.866314 0.611927
vt 0.847600 0.593213
vt 0.866314 0.585461
vt 0.885028 0.846631
vt 0.885028 0.593213
vt 0.892780 0.611927
vt 0.866314 0.838879
vt 0.847600 0.846631
vt 0.885028 0.630641
vt 0.839848 0.865345
vt 0.866314 0.638393
vt 0.839848 0.611927
vt 0.847600 0.630641
vt 0.866314 0.891811
vt 0.847600 0.884059
vt 0.520711 0.060503
vt 0.517028 0.068490
vt 0.500000 0.064527
vt 0.500000 0.054411
vt 0.482972 0.068490
vt 0.479289 0.060503
vt 0.530457 0.065062
vt 0.522612 0.070678
vt 0.477388 0.070678
vt 0.469543 0.065062
vt 0.532878 0.067822
vt 0.526301 0.079422
vt 0.473699 0.079422
vt 0.467122 0.067822
vt 0.544695 0.083023
vt 0.529228 0.091098
vt 0.470772 0.091098
vt 0.455305 0.083023
vt 0.565647 0.115495
vt 0.537536 0.127779
vt 0.462464 0.127779
vt 0.434353 0.115495
vt 0.586916 0.172042
vt 0.626605 0.208159
vt 0.600470 0.238288
vt 0.535885 0.215568
vt 0.399530 0.238288
vt 0.373395 0.208159
vt 0.413084 0.172042
vt 0.464115 0.215568
vt 0.650908 0.240294
vt 0.636962 0.261221
vt 0.363038 0.261221
vt 0.349092 0.240294
vt 0.689501 0.268805
vt 0.655896 0.284413
vt 0.344104 0.284413
vt 0.310499 0.268805
vt 0.684517 0.317795
vt 0.659507 0.313152
vt 0.340493 0.313152
vt 0.315483 0.317795
vt 0.671357 0.334694
vt 0.649107 0.322437
vt 0.350893 0.322437
vt 0.328643 0.334694
vt 0.636775 0.370732
vt 0.613636 0.353108
vt 0.386364 0.353108
vt 0.363225 0.370732
vt 0.602261 0.395588
vt 0.594178 0.371277
vt 0.405822 0.371277
vt 0.397739 0.395588
vt 0.581044 0.398468
vt 0.577351 0.373341
vt 0.422649 0.373341
vt 0.418956 0.398468
vt 0.532016 0.387365
vt 0.539817 0.354339
vt 0.460183 0.354339
vt 0.467984 0.387365
vt 0.500000 0.382860
vt 0.500000 0.340417
vt 0.559135 0.334326
vt 0.579057 0.335646
vt 0.420943 0.335646
vt 0.440865 0.334326
vt 0.592090 0.332885
vt 0.407910 0.332885
vt 0.606163 0.325516
vt 0.393837 0.325516
vt 0.628251 0.311636
vt 0.371749 0.311636
vt 0.635551 0.300507
vt 0.364449 0.300507
vt 0.631484 0.283889
vt 0.368516 0.283889
vt 0.611331 0.264411
vt 0.388669 0.264411
vt 0.592372 0.254897
vt 0.407628 0.254897
vt 0.559669 0.267717
vt 0.440331 0.267717
vt 0.550878 0.277832
vt 0.500000 0.252445
vt 0.449122 0.277832
vt 0.544001 0.314523
vt 0.455999 0.314523
vt 0.500000 0.295691
vt 0.543637 0.293371
vt 0.456363 0.293371
vt 0.506819 0.075382
vt 0.500000 0.073497
vt 0.493181 0.075382
vt 0.511782 0.080633
vt 0.488218 0.080633
vt 0.512172 0.093457
vt 0.487828 0.093457
vt 0.514257 0.133422
vt 0.513874 0.097191
vt 0.486126 0.097191
vt 0.485743 0.133422
vt 0.520226 0.164615
vt 0.500000 0.157864
vt 0.500000 0.134352
vt 0.479774 0.164615
vt 0.500000 0.100063
vt 0.500000 0.091346
vt 0.500000 0.203867
vt 0.523673 0.198817
vt 0.476327 0.198817
vt 0.530258 0.180239
vt 0.544209 0.172814
vt 0.455791 0.172814
vt 0.469742 0.180239
vt 0.541327 0.154899
vt 0.458673 0.154899
vt 0.578661 0.139176
vt 0.421339 0.139176
vt 0.583245 0.154155
vt 0.416755 0.154155
vt 0.500000 0.089977
vt 0.509911 0.090724
vt 0.490089 0.090724
vt 0.509713 0.082236
vt 0.490287 0.082236
vt 0.505196 0.077083
vt 0.494804 0.077083
vt 0.500000 0.075473
vt 0.503445 0.080840
vt 0.500000 0.080320
vt 0.496555 0.080840
vt 0.506660 0.083289
vt 0.493340 0.083289
vt 0.506822 0.086791
vt 0.493178 0.086791
vt 0.500000 0.085637
vt 0.562361 0.284338
vt 0.559190 0.294882
vt 0.437639 0.284338
vt 0.440810 0.294882
vt 0.563180 0.307151
vt 0.436820 0.307151
vt 0.570458 0.318697
vt 0.429542 0.318697
vt 0.569243 0.278245
vt 0.430757 0.278245
vt 0.589914 0.271772
vt 0.410086 0.271772
vt 0.602190 0.277180
vt 0.397810 0.277180
vt 0.617110 0.287175
vt 0.382890 0.287175
vt 0.618074 0.299197
vt 0.381926 0.299197
vt 0.615871 0.307438
vt 0.384129 0.307438
vt 0.598424 0.313725
vt 0.401576 0.313725
vt 0.590828 0.319797
vt 0.409172 0.319797
vt 0.582130 0.320991
vt 0.417870 0.320991
vt 0.578615 0.309394
vt 0.583998 0.312892
vt 0.421385 0.309394
vt 0.416002 0.312892
vt 0.589656 0.312336
vt 0.410344 0.312336
vt 0.596347 0.309249
vt 0.403653 0.309249
vt 0.606014 0.302517
vt 0.393986 0.302517
vt 0.607735 0.297520
vt 0.392265 0.297520
vt 0.606985 0.291216
vt 0.393015 0.291216
vt 0.598275 0.283083
vt 0.401725 0.283083
vt 0.589866 0.280167
vt 0.410134 0.280167
vt 0.576352 0.284624
vt 0.423648 0.284624
vt 0.572831 0.289915
vt 0.427169 0.289915
vt 0.573307 0.303342
vt 0.426693 0.303342
vt 0.572447 0.295716
vt 0.427553 0.295716
vt 0.574628 0.959188
vt 0.464516 0.959188
vt 0.477326 0.891852
vt 0.545439 0.884582
vt 0.272900 0.891852
vt 0.285710 0.959188
vt 0.175598 0.959188
vt 0.204787 0.884582
vt 0.605134 0.846978
vt 0.715894 0.897069
vt 0.145092 0.846978
vt 0.034332 0.897069
vt 0.605360 0.784410
vt 0.683874 0.757011
vt 0.144866 0.784410
vt 0.066352 0.757011
vt 0.574835 0.744212
vt 0.617867 0.719156
vt 0.175391 0.744212
vt 0.132359 0.719156
vt 0.534996 0.712528
vt 0.568728 0.682132
vt 0.215230 0.712528
vt 0.181498 0.682132
vt 0.483006 0.686791
vt 0.508539 0.641024
vt 0.267220 0.686791
vt 0.241687 0.641024
vt 0.513415 0.736977
vt 0.478880 0.719593
vt 0.271346 0.719593
vt 0.236811 0.736977
vt 0.541117 0.760754
vt 0.209109 0.760754
vt 0.557599 0.789442
vt 0.192627 0.789442
vt 0.553841 0.821849
vt 0.196385 0.821849
vt 0.524671 0.842380
vt 0.225555 0.842380
vt 0.485193 0.845321
vt 0.265033 0.845321
vt 0.408153 0.587507
vt 0.409610 0.674022
vt 0.342073 0.587507
vt 0.340616 0.674022
vt 0.400301 0.910556
vt 0.414155 0.878318
vt 0.336071 0.878318
vt 0.349925 0.910556
vt 0.443630 0.713731
vt 0.306596 0.713731
vt 0.429725 0.728622
vt 0.392812 0.710774
vt 0.357414 0.710774
vt 0.320501 0.728622
vt 0.422979 0.754609
vt 0.432640 0.746527
vt 0.327247 0.754609
vt 0.317586 0.746527
vt 0.427719 0.796173
vt 0.391578 0.815187
vt 0.358648 0.815187
vt 0.322507 0.796173
vt 0.448277 0.830976
vt 0.301949 0.830976
vt 0.466042 0.804091
vt 0.490498 0.816075
vt 0.284184 0.804091
vt 0.259728 0.816075
vt 0.448042 0.783921
vt 0.302184 0.783921
vt 0.438745 0.764960
vt 0.311481 0.764960
vt 0.445216 0.756351
vt 0.305010 0.756351
vt 0.449819 0.743458
vt 0.300407 0.743458
vt 0.456307 0.732687
vt 0.293919 0.732687
vt 0.475471 0.740871
vt 0.274755 0.740871
vt 0.514211 0.817769
vt 0.236015 0.817769
vt 0.527961 0.808598
vt 0.222265 0.808598
vt 0.530079 0.790754
vt 0.220147 0.790754
vt 0.518620 0.772385
vt 0.231606 0.772385
vt 0.498668 0.755033
vt 0.251558 0.755033
vt 0.468029 0.756171
vt 0.459660 0.770459
vt 0.282197 0.756171
vt 0.290566 0.770459
vt 0.487167 0.769899
vt 0.477354 0.785393
vt 0.263059 0.769899
vt 0.272872 0.785393
vt 0.504617 0.782999
vt 0.496545 0.797122
vt 0.245609 0.782999
vt 0.253681 0.797122
vt 0.516137 0.792591
vt 0.513713 0.804019
vt 0.234089 0.792591
vt 0.236513 0.804019
vt 0.574269 0.607668
vt 0.613510 0.655816
vt 0.175957 0.607668
vt 0.136716 0.655816
vt 0.644031 0.693270
vt 0.106195 0.693270
vt 0.668163 0.712097
vt 0.082063 0.712097
vt 0.727131 0.698475
vt 0.676584 0.686010
vt 0.023095 0.698475
vt 0.073642 0.686010
vt 0.729804 0.624370
vt 0.667013 0.640198
vt 0.020422 0.624370
vt 0.083213 0.640198
vt 0.721292 0.572934
vt 0.648152 0.594596
vt 0.028934 0.572934
vt 0.102074 0.594596
vt 0.584616 0.428636
vt 0.529647 0.428636
vt 0.415384 0.428636
vt 0.470353 0.428636
vt 0.666214 0.388954
vt 0.622301 0.417889
vt 0.333786 0.388954
vt 0.377699 0.417889
vt 0.701481 0.344467
vt 0.298519 0.344467
vt 0.712163 0.315527
vt 0.287837 0.315527
vt 0.704305 0.260225
vt 0.295695 0.260225
vt 0.672947 0.224880
vt 0.327053 0.224880
vt 0.640497 0.198841
vt 0.359503 0.198841
vt 0.603553 0.023452
vt 0.625128 0.029461
vt 0.635753 0.082198
vt 0.598617 0.056841
vt 0.364247 0.082198
vt 0.374872 0.029461
vt 0.396447 0.023452
vt 0.401383 0.056841
vt 0.546781 0.009442
vt 0.556354 0.040906
vt 0.453219 0.009442
vt 0.443646 0.040906
vt 0.500000 0.033223
vt 0.527159 0.049514
vt 0.472841 0.049514
vt 0.537222 0.060794
vt 0.462778 0.060794
vt 0.558499 0.065137
vt 0.441501 0.065137
vt 0.588127 0.085177
vt 0.411873 0.085177
vt 0.607239 0.113940
vt 0.392761 0.113940
vt 0.612663 0.133675
vt 0.605467 0.151503
vt 0.394533 0.151503
vt 0.387337 0.133675
vt 0.600708 0.162985
vt 0.399292 0.162985
vt 0.922374 0.064228
vt 0.859647 0.117994
vt 0.823287 0.101559
vt 0.861342 0.027230
vt 0.176713 0.101559
vt 0.140353 0.117994
vt 0.077626 0.064228
vt 0.138658 0.027230
vt 0.765863 0.087001
vt 0.774604 0.010837
vt 0.234137 0.087001
vt 0.225396 0.010837
vt 0.661952 0.087561
vt 0.647010 0.028716
vt 0.338048 0.087561
vt 0.352990 0.028716
vt 0.743592 0.198572
vt 0.766410 0.233065
vt 0.256408 0.198572
vt 0.233590 0.233065
vt 0.987633 0.154243
vt 0.889478 0.177602
vt 0.110522 0.177602
vt 0.012367 0.154243
vt 0.899807 0.420886
vt 0.844317 0.347370
vt 0.881169 0.309153
vt 0.958963 0.357385
vt 0.118831 0.309153
vt 0.155683 0.347370
vt 0.100193 0.420886
vt 0.041037 0.357385
vt 0.903302 0.261367
vt 0.999860 0.253531
vt 0.096698 0.261367
vt 0.000140 0.253531
vt 0.724763 0.340212
vt 0.744725 0.304629
vt 0.766113 0.319494
vt 0.255275 0.304629
vt 0.275237 0.340212
vt 0.233887 0.319494
vt 0.793427 0.280495
vt 0.826663 0.297810
vt 0.206573 0.280495
vt 0.173337 0.297810
vt 0.823620 0.254612
vt 0.855331 0.267956
vt 0.176380 0.254612
vt 0.144669 0.267956
vt 0.835860 0.225225
vt 0.868309 0.233525
vt 0.164140 0.225225
vt 0.131691 0.233525
vt 0.813499 0.190705
vt 0.851288 0.181145
vt 0.148712 0.181145
vt 0.186501 0.190705
vt 0.772263 0.374010
vt 0.227737 0.374010
vt 0.744519 0.390057
vt 0.255481 0.390057
vt 0.824765 0.470987
vt 0.175235 0.470987
vt 0.792141 0.464714
vt 0.742181 0.461543
vt 0.726855 0.432574
vt 0.273145 0.432574
vt 0.257819 0.461543
vt 0.207859 0.464714
vt 0.795638 0.489991
vt 0.204362 0.489991
vt 0.786137 0.227788
vt 0.213863 0.227788
vt 0.802950 0.203415
vt 0.197050 0.203415
vt 0.769334 0.128771
vt 0.691484 0.146686
vt 0.230666 0.128771
vt 0.308516 0.146686
vt 0.780113 0.169386
vt 0.219887 0.169386
vt 0.803789 0.171181
vt 0.830917 0.139518
vt 0.169083 0.139518
vt 0.196211 0.171181
vt 0.786150 0.181127
vt 0.770208 0.191225
vt 0.213850 0.181127
vt 0.229792 0.191225
vt 0.797710 0.195652
vt 0.802580 0.199758
vt 0.197420 0.199758
vt 0.202290 0.195652
vt 0.789609 0.184671
vt 0.210391 0.184671
vt 0.630034 0.557583
vt 0.717709 0.538143
vt 0.032517 0.538143
vt 0.120192 0.557583
vt 0.526877 0.539235
vt 0.223349 0.539235
vt 0.500000 0.428636
vt 0.521901 0.181560
vt 0.517666 0.172353
vt 0.482334 0.172353
vt 0.478099 0.181560
vt 0.518957 0.194728
vt 0.481043 0.194728
vt 0.508211 0.197295
vt 0.491789 0.197295
vt 0.500000 0.197278
vt 0.500000 0.192167
vt 0.500000 0.165170
vt 0.513538 0.176949
vt 0.500000 0.171718
vt 0.486462 0.176949
vt 0.500000 0.186182
vt 0.508818 0.192407
vt 0.491182 0.192407
vt 0.515232 0.190709
vt 0.484768 0.190709
vt 0.516908 0.181873
vt 0.483092 0.181873
s 0
g Suzanne_Face_1
usemtl Face_1
f 466/125/334 528/121/334 474/385/334 472/386/334
f 525/387/335 465/124/335 467/128/335 473/388/335
f 463/117/336 461/113/336 475/389/336 524/390/336
f 476/391/337 462/116/337 464/120/337 523/392/337
f 461/113/338 459/109/338 477/393/338 475/389/338
f 478/394/339 460/112/339 462/116/339 476/391/339
f 459/109/340 457/105/340 479/395/340 477/393/340
f 480/396/341 458/108/341 460/112/341 478/394/341
f 457/105/342 455/101/342 481/397/342 479/395/342
f 482/398/343 456/104/343 458/108/343 480/396/343
f 455/101/344 453/97/344 483/399/344 481/397/344
f 484/400/345 454/100/345 456/104/345 482/398/345
f 453/97/346 451/90/346 485/401/346 483/399/346
f 486/402/347 452/94/347 454/100/347 484/400/347
f 493/403/348 494/404/348 513/405/348 526/406/348
f 514/407/349 494/408/349 493/409/349 527/410/349
f 492/411/350 493/403/350 526/406/350 521/412/350
f 527/410/351 493/409/351 492/413/351 522/414/351
f 491/415/352 492/411/352 521/412/352 529/416/352
f 522/414/353 492/413/353 491/415/353 530/417/353
f 448/67/354 450/70/354 491/415/354 529/416/354
f 491/415/355 450/70/355 449/72/355 530/417/355
f 446/73/356 448/67/356 529/416/356 519/418/356
f 530/417/357 449/72/357 447/76/357 520/419/357
f 444/77/358 446/73/358 519/418/358 515/420/358
f 520/419/359 447/76/359 445/80/359 516/421/359
f 442/81/360 444/77/360 515/420/360 517/422/360
f 516/421/361 445/80/361 443/84/361 518/423/361
f 515/420/362 521/412/362 526/406/362 517/422/362
f 527/410/363 522/414/363 516/421/363 518/423/363
f 515/420/364 519/418/364 529/416/364 521/412/364
f 530/417/365 520/419/365 516/421/365 522/414/365
f 511/424/366 517/422/366 526/406/366 513/405/366
f 527/410/367 518/423/367 512/425/367 514/407/367
f 440/85/368 442/81/368 517/422/368 511/424/368
f 518/423/369 443/84/369 441/88/369 512/425/369
f 468/185/370 531/426/370 533/427/370 470/187/370
f 534/428/371 532/429/371 469/186/371 471/188/371
f 440/85/372 511/424/372 531/426/372 468/185/372
f 532/429/373 512/425/373 441/88/373 469/186/373
f 438/89/374 470/187/374 533/427/374 430/430/374
f 534/428/375 471/188/375 439/95/375 429/431/375
f 438/89/376 430/430/376 485/401/376 451/90/376
f 486/402/377 429/431/377 439/95/377 452/94/377
f 436/432/378 509/433/378 424/434/378 489/435/378
f 423/436/379 510/437/379 436/438/379 489/439/379
f 489/435/380 424/434/380 426/440/380 437/441/380
f 425/442/381 423/436/381 489/439/381 437/443/381
f 437/441/382 426/440/382 428/444/382 490/445/382
f 427/446/383 425/442/383 437/443/383 490/447/383
f 490/445/384 428/444/384 513/405/384 494/404/384
f 514/407/385 427/446/385 490/447/385 494/408/385
f 511/424/386 513/405/386 428/444/386 531/426/386
f 427/446/387 514/407/387 512/425/387 532/429/387
f 481/397/388 483/399/388 503/448/388 495/449/388
f 504/450/389 484/400/389 482/398/389 496/451/389
f 435/452/390 501/453/390 509/433/390 436/432/390
f 510/437/391 502/454/391 435/455/391 436/438/391
f 487/456/392 418/457/392 420/458/392 488/459/392
f 419/460/393 417/461/393 487/462/393 488/463/393
f 488/459/394 420/458/394 422/464/394 434/465/394
f 421/466/395 419/460/395 488/463/395 434/467/395
f 434/465/396 422/464/396 501/453/396 435/452/396
f 502/454/397 421/466/397 434/467/397 435/455/397
f 477/468/398 479/395/398 414/469/398 412/470/398
f 413/471/399 480/396/399 478/472/399 411/473/399
f 412/470/400 414/469/400 408/474/400 410/475/400
f 407/476/401 413/471/401 411/473/401 409/477/401
f 410/475/402 408/474/402 406/478/402 404/479/402
f 405/480/403 407/476/403 409/477/403 403/481/403
f 404/479/404 406/478/404 400/482/404 402/483/404
f 399/484/405 405/480/405 403/481/405 401/485/405
f 499/486/406 398/487/406 402/483/406 400/482/406
f 401/485/407 397/488/407 500/489/407 399/484/407
f 501/453/408 422/464/408 402/483/408 398/487/408
f 401/485/409 421/466/409 502/454/409 397/488/409
f 422/464/410 420/458/410 404/479/410 402/483/410
f 403/481/411 419/460/411 421/466/411 401/485/411
f 420/458/412 418/457/412 410/475/412 404/479/412
f 409/477/413 417/461/413 419/460/413 403/481/413
f 418/457/414 416/490/414 412/470/414 410/475/414
f 411/473/415 415/491/415 417/461/415 409/477/415
f 475/492/416 477/468/416 412/470/416 416/490/416
f 411/473/417 478/472/417 476/493/417 415/491/417
f 433/494/418 416/490/418 418/457/418 487/456/418
f 417/461/419 415/491/419 433/495/419 487/462/419
f 472/496/420 474/497/420 524/498/420 475/492/420
f 523/499/421 525/500/421 473/501/421 476/493/421
f 472/496/422 475/492/422 416/490/422 433/494/422
f 415/491/423 476/493/423 473/501/423 433/495/423
f 432/502/424 472/496/424 433/494/424
f 433/495/425 473/501/425 432/503/425
f 479/395/426 481/397/426 495/449/426 414/469/426
f 496/451/427 482/398/427 480/396/427 413/471/427
f 495/449/428 497/504/428 408/474/428 414/469/428
f 407/476/429 498/505/429 496/451/429 413/471/429
f 497/504/430 394/506/430 406/478/430 408/474/430
f 405/480/431 393/507/431 498/505/431 407/476/431
f 499/486/432 400/482/432 406/478/432 394/506/432
f 405/480/433 399/484/433 500/489/433 393/507/433
f 428/444/434 426/440/434 390/508/434 392/509/434
f 389/510/435 425/442/435 427/446/435 391/511/435
f 503/448/436 392/509/436 390/508/436 505/512/436
f 389/510/437 391/511/437 504/450/437 506/513/437
f 483/399/438 485/401/438 392/509/438 503/448/438
f 391/511/439 486/402/439 484/400/439 504/450/439
f 485/401/440 533/427/440 531/426/440 392/509/440
f 532/429/441 534/428/441 486/402/441 391/511/441
f 531/426/442 428/444/442 392/509/442
f 391/511/443 427/446/443 532/429/443
f 485/401/444 430/430/444 533/427/444
f 534/428/445 429/431/445 486/402/445
f 499/486/446 507/514/446 396/515/446 398/487/446
f 395/516/447 508/517/447 500/489/447 397/488/447
f 501/453/448 398/487/448 396/515/448 509/433/448
f 395/516/449 397/488/449 502/454/449 510/437/449
f 505/512/450 390/508/450 396/515/450 507/514/450
f 395/516/451 389/510/451 506/513/451 508/517/451
f 426/440/452 424/434/452 396/515/452 390/508/452
f 395/516/453 423/436/453 425/442/453 389/510/453
f 509/433/454 396/515/454 424/434/454
f 423/436/455 395/516/455 510/437/455
f 503/448/456 505/512/456 380/518/456 382/519/456
f 379/520/457 506/513/457 504/450/457 381/521/457
f 495/449/458 503/448/458 382/519/458 497/504/458
f 381/521/459 504/450/459 496/451/459 498/505/459
f 497/504/460 537/522/460 384/523/460 394/506/460
f 383/524/461 538/525/461 498/505/461 393/507/461
f 497/504/462 382/519/462 535/526/462 537/522/462
f 536/527/463 381/521/463 498/505/463 538/525/463
f 382/519/464 380/518/464 535/526/464
f 536/527/465 379/520/465 381/521/465
f 499/528/466 394/529/466 388/381/466 541/382/466
f 387/383/467 393/530/467 500/531/467 542/384/467
f 523/392/468 464/120/468 465/124/468 525/387/468
f 528/121/469 463/117/469 524/390/469 474/385/469
f 499/528/470 541/382/470 539/365/470 507/532/470
f 540/367/471 542/384/471 500/531/471 508/533/471
f 505/299/472 507/532/472 539/365/472 386/282/472
f 540/367/473 508/533/473 506/301/473 385/284/473
f 473/388/474 467/128/474 431/129/474 432/534/474
f 431/129/475 466/125/475 472/386/475 432/534/475
g Suzanne_Face_2
usemtl Face_2
f 81/67/65 165/68/65 167/69/65 83/70/65
f 167/69/66 166/71/66 82/72/66 83/70/66
f 79/73/67 163/74/67 165/68/67 81/67/67
f 166/71/68 164/75/68 80/76/68 82/72/68
f 77/77/69 161/78/69 163/74/69 79/73/69
f 164/75/70 162/79/70 78/80/70 80/76/70
f 75/81/71 159/82/71 161/78/71 77/77/71
f 162/79/72 160/83/72 76/84/72 78/80/72
f 73/85/73 157/86/73 159/82/73 75/81/73
f 160/83/74 158/87/74 74/88/74 76/84/74
f 71/89/75 84/90/75 137/91/75 155/92/75
f 138/93/76 85/94/76 72/95/76 156/96/76
f 84/90/77 86/97/77 139/98/77 137/91/77
f 140/99/78 87/100/78 85/94/78 138/93/78
f 86/97/79 88/101/79 141/102/79 139/98/79
f 142/103/80 89/104/80 87/100/80 140/99/80
f 88/101/81 90/105/81 143/106/81 141/102/81
f 144/107/82 91/108/82 89/104/82 142/103/82
f 90/105/83 92/109/83 145/110/83 143/106/83
f 146/111/84 93/112/84 91/108/84 144/107/84
f 92/109/85 94/113/85 147/114/85 145/110/85
f 148/115/86 95/116/86 93/112/86 146/111/86
f 94/113/87 96/117/87 149/118/87 147/114/87
f 150/119/88 97/120/88 95/116/88 148/115/88
f 96/117/89 98/121/89 151/122/89 149/118/89
f 152/123/90 99/124/90 97/120/90 150/119/90
f 98/121/91 100/125/91 153/126/91 151/122/91
f 154/127/92 101/128/92 99/124/92 152/123/92
f 100/125/93 67/129/93 68/130/93 153/126/93
f 68/130/94 67/129/94 101/128/94 154/127/94
f 102/131/95 120/132/95 151/122/95 153/126/95
f 152/123/96 121/133/96 103/134/96 154/127/96
f 120/132/97 170/135/97 149/118/97 151/122/97
f 150/119/98 171/136/98 121/133/98 152/123/98
f 118/137/99 147/114/99 149/118/99 170/135/99
f 150/119/100 148/115/100 119/138/100 171/136/100
f 116/139/101 145/110/101 147/114/101 118/137/101
f 148/115/102 146/111/102 117/140/102 119/138/102
f 114/141/103 143/106/103 145/110/103 116/139/103
f 146/111/104 144/107/104 115/142/104 117/140/104
f 112/143/105 141/102/105 143/106/105 114/141/105
f 144/107/106 142/103/106 113/144/106 115/142/106
f 110/145/107 139/98/107 141/102/107 112/143/107
f 142/103/108 140/99/108 111/146/108 113/144/108
f 108/147/109 137/91/109 139/98/109 110/145/109
f 140/99/110 138/93/110 109/148/110 111/146/110
f 106/149/111 155/92/111 137/91/111 108/147/111
f 138/93/112 156/96/112 107/150/112 109/148/112
f 106/149/113 172/151/113 168/152/113 155/92/113
f 168/152/114 173/153/114 107/150/114 156/96/114
f 102/131/115 153/126/115 68/130/115 104/154/115
f 68/130/116 154/127/116 103/134/116 105/155/116
f 104/154/117 68/130/117 169/156/117 174/157/117
f 169/156/118 68/130/118 105/155/118 175/158/118
f 168/152/119 172/151/119 174/157/119 169/156/119
f 175/158/120 173/153/120 168/152/120 169/156/120
f 127/159/121 129/160/121 167/69/121 165/68/121
f 167/69/122 129/160/122 128/161/122 166/71/122
f 125/162/123 127/159/123 165/68/123 163/74/123
f 166/71/124 128/161/124 126/163/124 164/75/124
f 123/164/125 125/162/125 163/74/125 161/78/125
f 164/75/126 126/163/126 124/165/126 162/79/126
f 157/86/127 178/166/127 176/167/127 159/82/127
f 177/168/128 179/169/128 158/87/128 160/83/128
f 123/164/129 161/78/129 159/82/129 176/167/129
f 160/83/130 162/79/130 124/165/130 177/168/130
f 135/170/131 181/171/131 180/172/131 178/166/131
f 180/172/132 181/171/132 136/173/132 179/169/132
f 176/167/133 178/166/133 180/172/133 69/174/133
f 180/172/134 179/169/134 177/168/134 69/174/134
f 122/175/135 123/164/135 176/167/135 69/174/135
f 177/168/135 124/165/135 122/175/135 69/174/135
f 130/176/136 131/177/136 155/92/136 168/152/136
f 156/96/137 132/178/137 130/176/137 168/152/137
f 131/177/138 133/179/138 184/180/138 155/92/138
f 185/181/139 134/182/139 132/178/139 156/96/139
f 133/179/140 135/170/140 186/183/140 184/180/140
f 187/184/141 136/173/141 134/182/141 185/181/141
f 135/170/142 178/166/142 157/86/142 186/183/142
f 158/87/143 179/169/143 136/173/143 187/184/143
f 73/85/144 182/185/144 186/183/144 157/86/144
f 187/184/145 183/186/145 74/88/145 158/87/145
f 182/185/146 188/187/146 184/180/146 186/183/146
f 185/181/147 189/188/147 183/186/147 187/184/147
f 71/89/148 155/92/148 184/180/148 188/187/148
f 185/181/149 156/96/149 72/95/149 189/188/149
f 123/164/150 122/175/150 70/189/150 195/190/150
f 70/189/151 122/175/151 124/165/151 196/191/151
f 125/162/152 123/164/152 195/190/152 193/192/152
f 196/191/153 124/165/153 126/163/153 194/193/153
f 127/159/154 125/162/154 193/192/154 191/194/154
f 194/193/155 126/163/155 128/161/155 192/195/155
f 129/160/156 127/159/156 191/194/156 190/196/156
f 192/195/157 128/161/157 129/160/157 190/196/157
f 190/196/158 191/194/158 202/197/158 204/198/158
f 203/199/159 192/195/159 190/196/159 204/198/159
f 191/194/160 193/192/160 200/200/160 202/197/160
f 201/201/161 194/193/161 192/195/161 203/199/161
f 193/192/162 195/190/162 198/202/162 200/200/162
f 199/203/163 196/191/163 194/193/163 201/201/163
f 195/190/164 70/189/164 197/204/164 198/202/164
f 197/204/165 70/189/165 196/191/165 199/203/165
f 174/157/170 172/151/170 207/205/170 205/206/170
f 208/207/171 173/153/171 175/158/171 206/208/171
f 104/154/172 174/157/172 205/206/172 227/209/172
f 206/208/173 175/158/173 105/155/173 228/210/173
f 102/131/174 104/154/174 227/209/174 229/211/174
f 228/210/175 105/155/175 103/134/175 230/212/175
f 172/151/176 106/149/176 225/213/176 207/205/176
f 226/214/177 107/150/177 173/153/177 208/207/177
f 106/149/178 108/147/178 223/215/178 225/213/178
f 224/216/179 109/148/179 107/150/179 226/214/179
f 108/147/180 110/145/180 221/217/180 223/215/180
f 222/218/181 111/146/181 109/148/181 224/216/181
f 110/145/182 112/143/182 219/219/182 221/217/182
f 220/220/183 113/144/183 111/146/183 222/218/183
f 112/143/184 114/141/184 217/221/184 219/219/184
f 218/222/185 115/142/185 113/144/185 220/220/185
f 114/141/186 116/139/186 215/223/186 217/221/186
f 216/224/187 117/140/187 115/142/187 218/222/187
f 116/139/188 118/137/188 213/225/188 215/223/188
f 214/226/189 119/138/189 117/140/189 216/224/189
f 118/137/190 170/135/190 209/227/190 213/225/190
f 210/228/191 171/136/191 119/138/191 214/226/191
f 170/135/192 120/132/192 211/229/192 209/227/192
f 212/230/193 121/133/193 171/136/193 210/228/193
f 120/132/194 102/131/194 229/211/194 211/229/194
f 230/212/195 103/134/195 121/133/195 212/230/195
f 211/229/196 229/211/196 231/231/196 249/232/196
f 232/233/197 230/212/197 212/230/197 250/234/197
f 209/227/198 211/229/198 249/232/198 251/235/198
f 250/234/199 212/230/199 210/228/199 252/236/199
f 213/225/200 209/227/200 251/235/200 247/237/200
f 252/236/201 210/228/201 214/226/201 248/238/201
f 215/223/202 213/225/202 247/237/202 245/239/202
f 248/238/203 214/226/203 216/224/203 246/240/203
f 217/221/204 215/223/204 245/239/204 243/241/204
f 246/240/205 216/224/205 218/222/205 244/242/205
f 219/219/206 217/221/206 243/241/206 241/243/206
f 244/242/207 218/222/207 220/220/207 242/244/207
f 221/217/208 219/219/208 241/243/208 239/245/208
f 242/244/209 220/220/209 222/218/209 240/246/209
f 223/215/210 221/217/210 239/245/210 237/247/210
f 240/246/211 222/218/211 224/216/211 238/248/211
f 225/213/212 223/215/212 237/247/212 235/249/212
f 238/248/213 224/216/213 226/214/213 236/250/213
f 207/205/214 225/213/214 235/249/214 253/251/214
f 236/250/215 226/214/215 208/207/215 254/252/215
f 229/211/216 227/209/216 233/253/216 231/231/216
f 234/254/217 228/210/217 230/212/217 232/233/217
f 227/209/218 205/206/218 255/255/218 233/253/218
f 256/256/219 206/208/219 228/210/219 234/254/219
f 205/206/220 207/205/220 253/251/220 255/255/220
f 254/252/221 208/207/221 206/208/221 256/256/221
f 273/257/222 261/258/222 287/259/222 275/260/222
f 288/261/223 262/262/223 274/263/223 276/264/223
f 273/257/224 275/260/224 277/265/224 271/266/224
f 278/267/225 276/264/225 274/263/225 272/268/225
f 271/266/226 277/265/226 279/269/226 269/270/226
f 280/271/227 278/267/227 272/268/227 270/272/227
f 269/270/228 279/269/228 281/273/228 267/274/228
f 282/275/229 280/271/229 270/272/229 268/276/229
f 267/274/230 281/273/230 283/277/230 265/278/230
f 284/279/231 282/275/231 268/276/231 266/280/231
f 265/278/232 283/277/232 285/281/232 263/282/232
f 286/283/233 284/279/233 266/280/233 264/284/233
f 283/277/234 293/285/234 291/286/234 285/281/234
f 292/287/235 294/288/235 284/279/235 286/283/235
f 281/273/236 295/289/236 293/285/236 283/277/236
f 294/288/237 296/290/237 282/275/237 284/279/237
f 279/269/238 297/291/238 295/289/238 281/273/238
f 296/290/239 298/292/239 280/271/239 282/275/239
f 277/265/240 299/293/240 297/291/240 279/269/240
f 298/292/241 300/294/241 278/267/241 280/271/241
f 275/260/242 301/295/242 299/293/242 277/265/242
f 300/294/243 302/296/243 276/264/243 278/267/243
f 275/260/244 287/259/244 289/297/244 301/295/244
f 290/298/245 288/261/245 276/264/245 302/296/245
f 257/299/246 263/282/246 285/281/246 315/300/246
f 286/283/247 264/284/247 258/301/247 316/302/247
f 259/303/248 303/304/248 287/259/248 261/258/248
f 288/261/249 304/305/249 260/306/249 262/262/249
f 285/281/250 291/286/250 313/307/250 315/300/250
f 314/308/251 292/287/251 286/283/251 316/302/251
f 311/309/252 317/310/252 315/300/252 313/307/252
f 316/302/253 318/311/253 312/312/253 314/308/253
f 307/313/254 317/310/254 311/309/254 309/314/254
f 312/312/255 318/311/255 308/315/255 310/316/255
f 305/317/256 319/318/256 317/310/256 307/313/256
f 318/311/257 320/319/257 306/320/257 308/315/257
f 303/304/258 319/318/258 305/317/258 321/321/258
f 306/320/259 320/319/259 304/305/259 322/322/259
f 287/259/260 303/304/260 321/321/260 289/297/260
f 322/322/261 304/305/261 288/261/261 290/298/261
f 289/297/262 321/321/262 323/323/262 347/324/262
f 324/325/263 322/322/263 290/298/263 348/326/263
f 321/321/264 305/317/264 333/327/264 323/323/264
f 334/328/265 306/320/265 322/322/265 324/325/265
f 305/317/266 307/313/266 331/329/266 333/327/266
f 332/330/267 308/315/267 306/320/267 334/328/267
f 307/313/268 309/314/268 329/331/268 331/329/268
f 330/332/269 310/316/269 308/315/269 332/330/269
f 309/314/270 311/309/270 327/333/270 329/331/270
f 328/334/271 312/312/271 310/316/271 330/332/271
f 311/309/272 313/307/272 325/335/272 327/333/272
f 326/336/273 314/308/273 312/312/273 328/334/273
f 313/307/274 291/286/274 345/337/274 325/335/274
f 346/338/275 292/287/275 314/308/275 326/336/275
f 301/295/276 289/297/276 347/324/276 335/339/276
f 348/326/277 290/298/277 302/296/277 336/340/277
f 299/293/278 301/295/278 335/339/278 337/341/278
f 336/340/279 302/296/279 300/294/279 338/342/279
f 297/291/280 299/293/280 337/341/280 339/343/280
f 338/342/281 300/294/281 298/292/281 340/344/281
f 295/289/282 297/291/282 339/343/282 341/345/282
f 340/344/283 298/292/283 296/290/283 342/346/283
f 293/285/284 295/289/284 341/345/284 343/347/284
f 342/346/285 296/290/285 294/288/285 344/348/285
f 291/286/286 293/285/286 343/347/286 345/337/286
f 344/348/287 294/288/287 292/287/287 346/338/287
f 329/331/288 327/333/288 351/349/288 349/350/288
f 352/351/289 328/334/289 330/332/289 350/352/289
f 349/350/290 351/349/290 353/353/290 355/354/290
f 354/355/291 352/351/291 350/352/291 356/356/291
f 355/354/292 353/353/292 359/357/292 357/358/292
f 360/359/293 354/355/293 356/356/293 358/360/293
f 357/358/294 359/357/294 361/361/294 363/362/294
f 362/363/295 360/359/295 358/360/295 364/364/295
f 335/339/296 347/324/296 357/358/296 363/362/296
f 358/360/297 348/326/297 336/340/297 364/364/297
f 323/323/298 355/354/298 357/358/298 347/324/298
f 358/360/299 356/356/299 324/325/299 348/326/299
f 323/323/300 333/327/300 349/350/300 355/354/300
f 350/352/301 334/328/301 324/325/301 356/356/301
f 329/331/302 349/350/302 333/327/302 331/329/302
f 334/328/303 350/352/303 330/332/303 332/330/303
f 325/335/304 345/337/304 351/349/304 327/333/304
f 352/351/305 346/338/305 326/336/305 328/334/305
f 343/347/306 353/353/306 351/349/306 345/337/306
f 352/351/307 354/355/307 344/348/307 346/338/307
f 341/345/308 359/357/308 353/353/308 343/347/308
f 354/355/309 360/359/309 342/346/309 344/348/309
f 339/343/310 361/361/310 359/357/310 341/345/310
f 360/359/311 362/363/311 340/344/311 342/346/311
f 337/341/312 363/362/312 361/361/312 339/343/312
f 362/363/313 364/364/313 338/342/313 340/344/313
f 335/339/314 363/362/314 337/341/314
f 338/342/315 364/364/315 336/340/315
f 265/278/316 263/282/316 375/365/316 373/366/316
f 376/367/317 264/284/317 266/280/317 374/368/317
f 267/274/318 265/278/318 373/366/318 371/369/318
f 374/368/319 266/280/319 268/276/319 372/370/319
f 269/270/320 267/274/320 371/369/320 369/371/320
f 372/370/321 268/276/321 270/272/321 370/372/321
f 271/373/322 269/270/322 369/371/322 367/374/322
f 370/372/323 270/272/323 272/375/323 368/376/323
f 273/377/324 271/373/324 367/374/324 365/378/324
f 368/376/325 272/375/325 274/379/325 366/380/325
f 261/381/326 273/377/326 365/378/326 377/382/326
f 366/380/327 274/379/327 262/383/327 378/384/327
f 365/378/328 373/366/328 375/365/328 377/382/328
f 376/367/329 374/368/329 366/380/329 378/384/329
f 365/378/330 367/374/330 371/369/330 373/366/330
f 372/370/331 368/376/331 366/380/331 374/368/331
f 367/374/332 369/371/332 371/369/332
f 372/370/333 370/372/333 368/376/333
g Suzanne_Face_4
usemtl Face_4
f 552/49/33 550/50/33 562/51/33
f 561/52/34 549/53/34 551/54/34
f 554/55/35 552/49/35 562/51/35
f 561/52/36 551/54/36 553/56/36
f 35/41/37 25/31/37 55/57/37 53/56/37
f 56/58/38 26/34/38 36/42/38 54/55/38
f 556/58/39 554/55/39 562/51/39
f 561/52/40 553/56/40 555/57/40
f 558/59/41 556/58/41 562/51/41
f 561/52/42 555/57/42 557/60/42
f 560/61/43 558/59/43 562/51/43
f 561/52/44 557/60/44 559/62/44
f 11/17/45 1/2/45 65/63/45 63/64/45
f 66/65/46 2/6/46 12/18/46 64/66/46
f 564/66/47 560/61/47 562/51/47
f 561/52/48 559/62/48 563/64/48
f 562/51/49 566/65/49 564/66/49
f 563/64/50 565/63/50 561/52/50
f 550/50/51 566/65/51 562/51/51
f 561/52/52 565/63/52 549/53/52
f 550/50/53 548/7/53 61/6/53 566/65/53
f 62/2/54 547/1/54 549/53/54 565/63/54
f 564/66/55 59/18/55 57/22/55 560/61/55
f 58/19/56 60/17/56 563/64/56 559/62/56
f 560/61/57 57/22/57 51/30/57 558/59/57
f 52/29/58 58/19/58 559/62/58 557/60/58
f 558/59/59 51/30/59 49/34/59 556/58/59
f 50/31/60 52/29/60 557/60/60 555/57/60
f 554/55/61 544/42/61 546/46/61 552/49/61
f 545/43/62 543/41/62 553/56/62 551/54/62
f 552/49/63 546/46/63 548/7/63 550/50/63
f 547/1/64 545/43/64 551/54/64 549/53/64
g Suzanne_Face_3
usemtl Face_3
f 47/1/1 1/2/1 3/3/1 45/4/1
f 4/5/2 2/6/2 48/7/2 46/8/2
f 45/4/3 3/3/3 5/9/3 43/10/3
f 6/11/4 4/5/4 46/8/4 44/12/4
f 3/3/5 9/13/5 7/14/5 5/9/5
f 8/15/6 10/16/6 4/5/6 6/11/6
f 1/2/7 11/17/7 9/13/7 3/3/7
f 10/16/8 12/18/8 2/6/8 4/5/8
f 11/17/9 13/19/9 15/20/9 9/13/9
f 16/21/10 14/22/10 12/18/10 10/16/10
f 9/13/11 15/20/11 17/23/11 7/14/11
f 18/24/12 16/21/12 10/16/12 8/15/12
f 15/20/13 21/25/13 19/26/13 17/23/13
f 20/27/14 22/28/14 16/21/14 18/24/14
f 13/19/15 23/29/15 21/25/15 15/20/15
f 22/28/16 24/30/16 14/22/16 16/21/16
f 23/29/17 25/31/17 27/32/17 21/25/17
f 28/33/18 26/34/18 24/30/18 22/28/18
f 21/25/19 27/32/19 29/35/19 19/26/19
f 30/36/20 28/33/20 22/28/20 20/27/20
f 27/32/21 33/37/21 31/38/21 29/35/21
f 32/39/22 34/40/22 28/33/22 30/36/22
f 25/31/23 35/41/23 33/37/23 27/32/23
f 34/40/24 36/42/24 26/34/24 28/33/24
f 35/41/25 37/43/25 39/44/25 33/37/25
f 40/45/26 38/46/26 36/42/26 34/40/26
f 33/37/27 39/44/27 41/47/27 31/38/27
f 42/48/28 40/45/28 34/40/28 32/39/28
f 39/44/29 45/4/29 43/10/29 41/47/29
f 44/12/30 46/8/30 40/45/30 42/48/30
f 37/43/31 47/1/31 45/4/31 39/44/31
f 46/8/32 48/7/32 38/46/32 40/45/32
f 197/204/166 204/198/166 202/197/166 198/202/166
f 203/199/167 204/198/167 197/204/167 199/203/167
f 198/202/168 202/197/168 200/200/168
f 201/201/169 203/199/169 199/203/169
g Suzanne_Face_5
usemtl Face_5
f 573/179/476 580/535/476 578/536/476 575/170/476
f 579/537/477 581/538/477 574/182/477 576/173/477
f 571/177/478 582/539/478 580/535/478 573/179/478
f 581/538/479 583/540/479 572/178/479 574/182/479
f 570/176/480 584/541/480 582/539/480 571/177/480
f 583/540/481 585/542/481 570/176/481 572/178/481
f 569/543/482 568/544/482 584/541/482 570/176/482
f 585/542/483 568/544/483 569/543/483 570/176/483
f 577/171/484 575/170/484 578/536/484 567/545/484
f 579/537/485 576/173/485 577/171/485 567/545/485
f 567/545/486 578/536/486 593/546/486 595/547/486
f 594/548/487 579/537/487 567/545/487 595/547/487
f 568/544/488 586/549/488 587/550/488 584/541/488
f 588/551/489 586/549/489 568/544/489 585/542/489
f 584/541/490 587/550/490 589/552/490 582/539/490
f 590/553/491 588/551/491 585/542/491 583/540/491
f 582/539/492 589/552/492 591/554/492 580/535/492
f 592/555/493 590/553/493 583/540/493 581/538/493
f 580/535/494 591/554/494 593/546/494 578/536/494
f 594/548/495 592/555/495 581/538/495 579/537/495
f 586/549/496 591/554/496 589/552/496 587/550/496
f 590/553/497 592/555/497 586/549/497 588/551/497
f 586/549/498 595/547/498 593/546/498 591/554/498
f 594/548/499 595/547/499 586/549/499 592/555/499
